<svg xmlns="http://www.w3.org/2000/svg" viewBox="0 0 64 64" role="img" aria-label="Cleverdi logo">
  <defs>
    <linearGradient id="g" x1="0" x2="1" y1="0" y2="1">
      <stop offset="0" stop-color="#2B6CB0"/>
      <stop offset="1" stop-color="#38A169"/>
    </linearGradient>
  </defs>
  <rect x="6" y="6" width="52" height="52" rx="16" fill="url(#g)"/>
  <path d="M41.8 24.4c-1.6-2.4-4.6-4-8.2-4-5.2 0-9.4 3.8-9.4 11.6 0 7.9 4.2 11.6 9.4 11.6 3.6 0 6.6-1.6 8.2-4l-3.7-2.2c-.9 1.3-2.6 2.2-4.5 2.2-3 0-5.4-2.2-5.4-7.6 0-5.4 2.4-7.6 5.4-7.6 1.9 0 3.6.9 4.5 2.2l3.7-2.2z" fill="#fff" opacity=".95"/>
</svg>
